Results
version=1
nRows=17
nColumns=24
inDegrees=yes
endheader
time	pelvis_tilt	pelvis_list	pelvis_rotation	pelvis_tx	pelvis_ty	pelvis_tz	hip_flexion_r	hip_adduction_r	hip_rotation_r	knee_angle_r	ankle_angle_r	subtalar_angle_r	mtp_angle_r	hip_flexion_l	hip_adduction_l	hip_rotation_l	knee_angle_l	ankle_angle_l	subtalar_angle_l	mtp_angle_l	lumbar_extension	lumbar_bending	lumbar_rotation
      1.74200000	     -1.32724996	      0.92412217	     -1.93583819	      1.26820396	      1.00495839	      0.27297653	     22.75852319	     -4.92180662	     -6.63332381	    -77.44387756	     -5.11108311	     -4.27194581	     -1.99782539	     16.70480225	      1.72112362	     -7.70744900	    -16.44233910	     -1.06032687	     -9.71133594	      2.87804905	     -9.77609781	     -4.78172617	      1.48713970
      1.74616667	     -1.16387616	      0.77261787	     -1.53064559	      1.27284031	      1.00630304	      0.27193706	     23.21747841	     -4.87558711	     -7.06547948	    -77.22630573	     -4.81272630	     -4.13131253	     -1.85410270	     16.11576663	      1.73798435	     -7.29144202	    -16.15762117	     -0.98383182	     -9.66007421	      2.91151118	    -10.02124731	     -4.50599557	      1.00132796
      1.75033333	     -1.10291368	      0.71109467	     -1.31921246	      1.27749062	      1.00739309	      0.27144045	     23.84594743	     -4.81335792	     -7.26873643	    -77.04225224	     -4.45075491	     -4.04701530	     -1.81463005	     15.62121242	      1.75532629	     -7.15834610	    -15.87210809	     -0.91563922	     -9.50086305	      2.92175385	    -10.13173689	     -4.38949016	      0.90992484
      1.75450000	     -0.92031771	      0.56723686	     -0.94066361	      1.28217326	      1.00875812	      0.27046489	     24.25106874	     -4.77843579	     -7.68611936	    -76.72008212	     -4.17608278	     -3.93668646	     -1.69185709	     14.99257885	      1.75808694	     -6.78152988	    -15.55737638	     -0.84718233	     -9.46009428	      2.95824109	    -10.38646536	     -4.12502778	      0.47212685
      1.75866667	     -0.86174749	      0.52114644	     -0.73572099	      1.28678903	      1.00979259	      0.26999026	     24.86050909	     -4.74176029	     -7.88524432	    -76.45106166	     -3.82810254	     -3.87449487	     -1.65801799	     14.49202359	      1.78230714	     -6.66124666	    -15.24256972	     -0.79929282	     -9.29492067	      2.96901055	    -10.49125532	     -4.02235380	      0.38072077
      1.76283333	     -0.65601386	      0.37314940	     -0.37362842	      1.29144421	      1.01115756	      0.26906702	     25.21456102	     -4.70652027	     -8.29726263	    -76.03093798	     -3.55464144	     -3.77779285	     -1.55588898	     13.83711061	      1.75952109	     -6.31140360	    -14.92713601	     -0.71717779	     -9.23579879	      3.00073533	    -10.76746517	     -3.75077365	     -0.04066819
      1.76700000	     -0.55529802	      0.31762513	     -0.15059341	      1.29604755	      1.01223599	      0.26850342	     25.73135318	     -4.69134091	     -8.52722268	    -75.64901932	     -3.21719040	     -3.64597298	     -1.49842891	     13.28365693	      1.77902301	     -6.15286070	    -14.59159245	     -0.64963238	     -9.11995634	      3.02016475	    -10.91627057	     -3.61836657	     -0.19869795
      1.77116667	     -0.44655936	      0.21019453	      0.11574958	      1.30065440	      1.01333513	      0.26790050	     26.20452646	     -4.64141117	     -8.82538146	    -75.18745726	     -2.91456044	     -3.57300190	     -1.44646082	     12.73633731	      1.74439021	     -5.94618307	    -14.28906024	     -0.57106341	     -8.98279389	      3.04252343	    -11.07972130	     -3.43685161	     -0.41451673
      1.77533333	     -0.31732903	      0.13751918	      0.35372429	      1.30526030	      1.01443386	      0.26731109	     26.64597275	     -4.62697771	     -9.08785013	    -74.69311556	     -2.60604320	     -3.48262167	     -1.39815707	     12.15145655	      1.74287518	     -5.75442158	    -13.94776973	     -0.52485463	     -8.89917959	      3.06310646	    -11.26429344	     -3.28127051	     -0.64157879
      1.77950000	     -0.20215281	      0.05176356	      0.59643638	      1.30984663	      1.01546967	      0.26672718	     27.08763868	     -4.60470118	     -9.36323372	    -74.15140251	     -2.30270180	     -3.39692570	     -1.35712768	     11.59411048	      1.72125184	     -5.57033146	    -13.63177348	     -0.45511429	     -8.79288092	      3.08618473	    -11.43051788	     -3.09928926	     -0.83591715
      1.78366667	     -0.06393098	     -0.01598123	      0.81621337	      1.31440012	      1.01650929	      0.26621631	     27.49542674	     -4.58893428	     -9.61258729	    -73.57017525	     -2.01419314	     -3.36407328	     -1.30858302	     11.00511915	      1.70882171	     -5.40155823	    -13.29512941	     -0.42117072	     -8.72839184	      3.11795876	    -11.62434049	     -2.95160773	     -1.04022597
      1.78783333	     -0.02658372	     -0.06803543	      0.98487272	      1.31896679	      1.01732103	      0.26585777	     28.01448949	     -4.56029167	     -9.79523258	    -72.96933573	     -1.70937724	     -3.22693134	     -1.28779435	     10.53288380	      1.69086658	     -5.31318859	    -12.99110227	     -0.33092522	     -8.59114228	      3.13543210	    -11.69452269	     -2.83729853	     -1.14179216
      1.79200000	     -0.00941749	     -0.10226010	      1.12066683	      1.32350745	      1.01805857	      0.26560291	     28.55176167	     -4.53014730	     -9.94368216	    -72.33524752	     -1.37856470	     -3.17153289	     -1.27837117	     10.07804189	      1.68223901	     -5.24285764	    -12.66578795	     -0.30838646	     -8.48846907	      3.14449630	    -11.74826049	     -2.75966501	     -1.22157949
      1.79616667	      0.09990386	     -0.17700389	      1.35363973	      1.32809573	      1.01895934	      0.26505376	     28.92277446	     -4.53387682	    -10.21150893	    -71.60849221	     -1.12477519	     -2.96971599	     -1.26430616	      9.53609156	      1.65483952	     -5.06831552	    -12.36839902	     -0.17527812	     -8.36620417	      3.17278210	    -11.90187490	     -2.58677368	     -1.43907827
      1.80033333	      0.10030866	     -0.20244255	      1.47690344	      1.33262767	      1.01959201	      0.26485620	     29.44635291	     -4.50812412	    -10.34398339	    -70.88881465	     -0.81442187	     -2.92185214	     -1.25945569	      9.10792298	      1.64593389	     -5.01832483	    -12.06260320	     -0.16129389	     -8.29001851	      3.18175621	    -11.93263393	     -2.52519389	     -1.50612370
      1.80450000	      0.21813261	     -0.26912368	      1.72103491	      1.33714296	      1.02042585	      0.26430222	     29.77041134	     -4.53156164	    -10.62552746	    -70.07701664	     -0.55211380	     -2.76102355	     -1.25709431	      8.56952511	      1.62314237	     -4.80071893	    -11.78286611	     -0.05035142	     -8.19976181	      3.22033012	    -12.10568295	     -2.35681940	     -1.74789180
      1.80866667	      0.20705170	     -0.28397798	      1.83885620	      1.34165449	      1.02096713	      0.26409568	     30.26760449	     -4.52468365	    -10.74751045	    -69.26576591	     -0.28956788	     -2.59055839	     -1.25705964	      8.16157272	      1.62327942	     -4.74465266	    -11.49088959	      0.02388074	     -8.11146925	      3.24235427	    -12.12154530	     -2.29692494	     -1.81217477
